<mxfile host="app.diagrams.net" modified="2023-05-20T23:26:16.701Z" agent="Mozilla/5.0 (Windows NT 10.0; Win64; x64) AppleWebKit/537.36 (KHTML, like Gecko) Chrome/113.0.0.0 Safari/537.36" etag="9ETJm0RJolnzkLCZwU43" version="21.3.2" type="github">
  <diagram name="Page-1" id="U69GnZZHKfzNpY2461Qv">
    <mxGraphModel dx="1434" dy="756" grid="1" gridSize="10" guides="1" tooltips="1" connect="1" arrows="1" fold="1" page="1" pageScale="1" pageWidth="827" pageHeight="1169" math="0" shadow="0">
      <root>
        <mxCell id="0" />
        <mxCell id="1" parent="0" />
        <mxCell id="i9jU11RTiChBkYhs0KUP-18" value="&lt;sup&gt;FuncionÃ¡rio&lt;/sup&gt;" style="shape=umlActor;verticalLabelPosition=bottom;verticalAlign=top;html=1;" parent="1" vertex="1">
          <mxGeometry x="80" y="40" width="30" height="60" as="geometry" />
        </mxCell>
        <mxCell id="i9jU11RTiChBkYhs0KUP-19" value="Sistema&lt;br&gt;" style="shape=umlActor;verticalLabelPosition=bottom;verticalAlign=top;html=1;outlineConnect=0;" parent="1" vertex="1">
          <mxGeometry x="630" y="40" width="30" height="60" as="geometry" />
        </mxCell>
        <mxCell id="i9jU11RTiChBkYhs0KUP-20" value="" style="endArrow=none;html=1;rounded=0;" parent="1" edge="1">
          <mxGeometry width="50" height="50" relative="1" as="geometry">
            <mxPoint x="160" y="707" as="sourcePoint" />
            <mxPoint x="160" y="107" as="targetPoint" />
          </mxGeometry>
        </mxCell>
        <mxCell id="i9jU11RTiChBkYhs0KUP-23" value="" style="endArrow=classic;html=1;rounded=0;" parent="1" edge="1">
          <mxGeometry width="50" height="50" relative="1" as="geometry">
            <mxPoint x="160" y="147" as="sourcePoint" />
            <mxPoint x="580" y="147" as="targetPoint" />
          </mxGeometry>
        </mxCell>
        <mxCell id="i9jU11RTiChBkYhs0KUP-28" value="" style="endArrow=none;html=1;rounded=0;" parent="1" edge="1">
          <mxGeometry width="50" height="50" relative="1" as="geometry">
            <mxPoint x="580" y="707" as="sourcePoint" />
            <mxPoint x="580" y="107" as="targetPoint" />
          </mxGeometry>
        </mxCell>
        <mxCell id="oMyKDx--E1rQ4KZJ6vI5-1" value="mostrarAlugueres ( codigo , dataInicial)" style="text;html=1;align=center;verticalAlign=middle;resizable=0;points=[];autosize=1;strokeColor=none;fillColor=none;" vertex="1" parent="1">
          <mxGeometry x="240" y="160" width="230" height="30" as="geometry" />
        </mxCell>
        <mxCell id="oMyKDx--E1rQ4KZJ6vI5-2" value="" style="endArrow=none;dashed=1;html=1;dashPattern=1 3;strokeWidth=2;rounded=0;" edge="1" parent="1">
          <mxGeometry width="50" height="50" relative="1" as="geometry">
            <mxPoint x="160" y="200" as="sourcePoint" />
            <mxPoint x="580" y="200" as="targetPoint" />
          </mxGeometry>
        </mxCell>
        <mxCell id="oMyKDx--E1rQ4KZJ6vI5-3" value="returnListaAlugueres &amp;amp; returnMembros" style="text;html=1;align=center;verticalAlign=middle;resizable=0;points=[];autosize=1;strokeColor=none;fillColor=none;" vertex="1" parent="1">
          <mxGeometry x="240" y="208" width="230" height="30" as="geometry" />
        </mxCell>
      </root>
    </mxGraphModel>
  </diagram>
</mxfile>
